<svg width="28" height="26" viewBox="0 0 28 26" fill="none" xmlns="http://www.w3.org/2000/svg">
<path d="M27.3226 5.32818C26.8881 4.28552 26.2617 3.34067 25.4784 2.54652C24.6945 1.75 23.7702 1.11702 22.7558 0.682001C21.704 0.229118 20.5759 -0.0026936 19.4369 2.36135e-05C17.8391 2.36135e-05 16.2801 0.453555 14.9253 1.31023C14.6012 1.51516 14.2933 1.74024 14.0016 1.98549C13.7099 1.74024 13.402 1.51516 13.0779 1.31023C11.7231 0.453555 10.1641 2.36135e-05 8.56626 2.36135e-05C7.41566 2.36135e-05 6.30072 0.228469 5.24736 0.682001C4.22965 1.11874 3.31242 1.74696 2.52483 2.54652C1.74047 3.33977 1.1139 4.28485 0.680633 5.32818C0.230119 6.4133 0 7.56561 0 8.75151C0 9.87022 0.220396 11.036 0.657946 12.2219C1.02419 13.2129 1.54925 14.2409 2.22016 15.279C3.28325 16.9218 4.74499 18.6351 6.56001 20.372C9.56776 23.2511 12.5463 25.2399 12.6727 25.3205L13.4409 25.8312C13.7812 26.0563 14.2188 26.0563 14.5591 25.8312L15.3272 25.3205C15.4536 25.2366 18.429 23.2511 21.44 20.372C23.255 18.6351 24.7167 16.9218 25.7798 15.279C26.4507 14.2409 26.979 13.2129 27.342 12.2219C27.7796 11.036 28 9.87022 28 8.75151C28.0032 7.56561 27.7731 6.4133 27.3226 5.32818ZM14.0016 23.1738C14.0016 23.1738 2.46324 15.5108 2.46324 8.75151C2.46324 5.32818 5.1955 2.55324 8.56626 2.55324C10.9355 2.55324 12.9904 3.92391 14.0016 5.92617C15.0128 3.92391 17.0677 2.55324 19.4369 2.55324C22.8077 2.55324 25.54 5.32818 25.54 8.75151C25.54 15.5108 14.0016 23.1738 14.0016 23.1738Z" fill="white"/>
</svg>
